<svg xmlns="http://www.w3.org/2000/svg" viewBox="0 0 812.7 222.84"><defs><style>.cls-1{fill:#ff5f00;}</style></defs><g id="图层_2" data-name="图层 2"><g id="图层_1-2" data-name="图层 1"><path d="M533.14,33.62l2.26-9.85a.5.5,0,0,0-.11-.45.58.58,0,0,0-.45-.2H426.4a.56.56,0,0,0-.58.54V79.8a95.66,95.66,0,0,1-3.63,26.1l-5,17.76a.5.5,0,0,0,.1.47.59.59,0,0,0,.45.21h11a.57.57,0,0,0,.56-.4l4.6-16.36a96.9,96.9,0,0,0,3.6-26.16V34h95.16A.56.56,0,0,0,533.14,33.62Z"/><path d="M534.84,113.41H493.25V105h33.26a.55.55,0,0,0,.57-.54V94.65a.55.55,0,0,0-.57-.54H493.25V85.75h22.8c6.08,0,11-4.67,11-10.4V40.88a.55.55,0,0,0-.57-.54H448.17a.56.56,0,0,0-.58.54V85.2a.57.57,0,0,0,.58.55h33.47v8.36H448.17a.56.56,0,0,0-.58.54v9.85a.56.56,0,0,0,.58.54h33.47v8.37H441a.57.57,0,0,0-.58.54v9.85a.56.56,0,0,0,.58.54h91.61a.57.57,0,0,0,.56-.43l2.26-9.84a.49.49,0,0,0-.11-.45A.59.59,0,0,0,534.84,113.41Zm-41.6-55.83V51.27h22.23v6.31ZM515.47,68.5v6.31H493.24V68.5Zm-33.83,0v6.31H459.2V68.51ZM459.2,57.58v-6.3h22.44v6.3Z"/><path d="M610.15,61.06V51.22a.56.56,0,0,0-.58-.54H590.78V34.05h16.58a.57.57,0,0,0,.57-.43l2.26-9.85a.51.51,0,0,0-.11-.46.59.59,0,0,0-.45-.2H560.36a.56.56,0,0,0-.58.54V33.5a.57.57,0,0,0,.58.55h18.82V50.68H560.36a.56.56,0,0,0-.58.54v9.84a.56.56,0,0,0,.58.54h18.82v62.15a.56.56,0,0,0,.58.54h10.45a.56.56,0,0,0,.57-.54V61.6h18.79A.56.56,0,0,0,610.15,61.06Z"/><path d="M677.88,86.44H662.8V23.71a.55.55,0,0,0-.57-.54H651.78a.56.56,0,0,0-.58.54V86.44H612.36a.59.59,0,0,0-.43.18.54.54,0,0,0-.14.43l1.32,9.85a.56.56,0,0,0,.57.47H651.2v26.37a.56.56,0,0,0,.58.54h10.45a.55.55,0,0,0,.57-.54V97.37h12.81a.56.56,0,0,0,.56-.43l2.27-9.84a.52.52,0,0,0-.12-.46A.57.57,0,0,0,677.88,86.44Z"/><path d="M616.29,66.7,647,75.44a.5.5,0,0,0,.17,0,.59.59,0,0,0,.34-.1.53.53,0,0,0,.23-.44V64.63a.52.52,0,0,0-.41-.51l-30.67-8.74a.61.61,0,0,0-.51.08.53.53,0,0,0-.23.44V66.19A.53.53,0,0,0,616.29,66.7Z"/><path d="M616.29,39.77,647,48.51a.5.5,0,0,0,.17,0,.59.59,0,0,0,.34-.1.53.53,0,0,0,.23-.44V37.7a.54.54,0,0,0-.41-.51l-30.67-8.74a.61.61,0,0,0-.51.08.54.54,0,0,0-.23.44V39.26A.53.53,0,0,0,616.29,39.77Z"/><path d="M575.47,66.16H564.93a.57.57,0,0,0-.57.48l-7.67,57a.51.51,0,0,0,.14.42.59.59,0,0,0,.43.19H567.8a.56.56,0,0,0,.57-.48l7.67-57a.51.51,0,0,0-.14-.42A.57.57,0,0,0,575.47,66.16Z"/><path d="M605,66.17H594.45a.58.58,0,0,0-.43.18.53.53,0,0,0-.14.43l7.67,57a.56.56,0,0,0,.57.47h10.54a.62.62,0,0,0,.43-.18.54.54,0,0,0,.14-.43l-7.67-57A.56.56,0,0,0,605,66.17Z"/><path d="M732,78.86V68.57a.54.54,0,0,0-.23-.44.62.62,0,0,0-.51-.08l-13.5,3.87V51.27h13.62a.56.56,0,0,0,.58-.54V40.89a.56.56,0,0,0-.58-.54H717.79V23.71a.56.56,0,0,0-.57-.54H706.77a.56.56,0,0,0-.58.54V40.35H692.57a.56.56,0,0,0-.58.54v9.84a.56.56,0,0,0,.58.54h13.62v24l-13.79,4a.56.56,0,0,0-.41.52V90a.55.55,0,0,0,.24.44.6.6,0,0,0,.51.08l13.45-3.85v26.74H692.53a.55.55,0,0,0-.57.54v9.84a.56.56,0,0,0,.57.55h14.24a.59.59,0,0,0,.22,0c6-.11,10.8-4.73,10.8-10.4V83.35l13.83-4A.55.55,0,0,0,732,78.86Z"/><path d="M812.39,123.32a212.5,212.5,0,0,1-31.72-18.69c15-13.28,21.48-25.07,24.33-32.69a.54.54,0,0,0,.1-.3V61.78a.56.56,0,0,0-.58-.54h-28.2V45.79h27.43a.57.57,0,0,0,.56-.43l2.25-9.85a.49.49,0,0,0-.11-.45.59.59,0,0,0-.45-.21H776.32V23.71a.56.56,0,0,0-.57-.54H765.28a.56.56,0,0,0-.57.54V34.85h-28.2a.56.56,0,0,0-.57.55v9.85a.55.55,0,0,0,.57.54h28.2V61.24h-28.2a.55.55,0,0,0-.57.54v9.86a.55.55,0,0,0,.57.54h54.11c-2.84,5.87-8.54,14.68-19.78,24.66-8.27-7.21-14.58-14.59-18.74-22a.6.6,0,0,0-.51-.28H738a.6.6,0,0,0-.48.24.52.52,0,0,0,0,.51c3.16,6.85,9.8,17.48,23.55,29.43a210,210,0,0,1-30.94,18.55.52.52,0,0,0-.29.61.56.56,0,0,0,.55.41H753a.65.65,0,0,0,.31-.08,197.05,197.05,0,0,0,17.58-11.66,196.26,196.26,0,0,0,17.88,11.66.61.61,0,0,0,.3.08h23.08a.57.57,0,0,0,.56-.41A.53.53,0,0,0,812.39,123.32Z"/><path d="M276.54,95.19H287a.55.55,0,0,0,.57-.54V34.05h23.7v60.6a.56.56,0,0,0,.57.54h10.46a.56.56,0,0,0,.58-.54V33.5c0-5.72-4.95-10.38-11-10.38H276.54a.56.56,0,0,0-.58.54v71A.56.56,0,0,0,276.54,95.19Z"/><path d="M375.26,100.65c12.53-18.82,16.6-35.69,17.92-44.18V46.63a.56.56,0,0,0-.58-.54H342.76V34h50.55a.56.56,0,0,0,.56-.42l2.26-9.85a.5.5,0,0,0-.11-.45.59.59,0,0,0-.45-.2H331.74a.59.59,0,0,0-.58.58V91.47a63.9,63.9,0,0,1-3.29,20.25l-3.54,10.63-19.12-31.2V45.81a.39.39,0,0,0-.1-.26V40.88a.55.55,0,0,0-.57-.54H294.09a.56.56,0,0,0-.58.54V91.15l-19.84,32.38a.52.52,0,0,0,0,.54.57.57,0,0,0,.5.27h12.07a.57.57,0,0,0,.49-.27l12.63-20.61L312,124.07a.6.6,0,0,0,.5.27h22.92A.57.57,0,0,0,336,124l3.46-10.41A64.93,64.93,0,0,0,342.76,93V57h38a104.78,104.78,0,0,1-12.85,32.73,107.14,107.14,0,0,1-12.12-29.33.57.57,0,0,0-.56-.43H344a.61.61,0,0,0-.44.2.53.53,0,0,0-.12.45,114.75,114.75,0,0,0,17.17,40,130.59,130.59,0,0,1-22.15,22.73.51.51,0,0,0-.16.6.57.57,0,0,0,.54.35H354.9a.6.6,0,0,0,.41-.16,139.73,139.73,0,0,0,12.59-13.55,141.1,141.1,0,0,0,12.6,13.55.58.58,0,0,0,.4.16H397a.57.57,0,0,0,.54-.35.53.53,0,0,0-.16-.6A129.88,129.88,0,0,1,375.26,100.65Z"/><path class="cls-1" d="M214.86,119.79,185.32,99.11l13.73-94a4.41,4.41,0,0,0-7.2-4L125.18,57l60.14,42.12-60.14,50.46-15.87,73.26L93.44,149.57,33.3,99.11,93.44,57,26.76,1.05a4.41,4.41,0,0,0-7.2,4L33.29,99.11,3.76,119.79a8.81,8.81,0,0,0-.61,14l106.16,89.08h0l106.16-89.08A8.81,8.81,0,0,0,214.86,119.79Z"/><rect x="435.51" y="146.97" width="11.15" height="56.6"/><polygon points="491.8 158.3 478.65 187.25 466.56 158.3 455.47 158.3 472.87 199.98 472.81 200.11 463.92 219.69 475.01 219.69 502.88 158.3 491.8 158.3"/><polygon points="273.61 146.68 273.61 203.58 284.76 203.58 284.76 181.45 310.87 181.45 313.29 172.09 284.76 172.09 284.76 156.04 317.44 156.04 319.86 146.68 273.61 146.68"/><path d="M334.79,203.58h31.5V173.65a15.37,15.37,0,0,0-15.36-15.35H328.07l-2.32,9.36h23a6.43,6.43,0,0,1,6.42,6.42v2.81H333.77a11.5,11.5,0,0,0-11.49,11.48v2.7A12.52,12.52,0,0,0,334.79,203.58ZM337.47,185h17.67v10.49H337.47c-2.57,0-4-1.92-4-5.25S334.9,185,337.47,185Z"/><path d="M410.07,174.08v29.5h11.14V173.65a15.37,15.37,0,0,0-15.35-15.35H377.21v45.28h11.15V167.66h15.29A6.43,6.43,0,0,1,410.07,174.08Z"/><path d="M525.71,203.58h28.65V158.3H543.21v35.91H527.92a6.43,6.43,0,0,1-6.42-6.42V158.3H510.35v29.92A15.38,15.38,0,0,0,525.71,203.58Z"/><path d="M599,174.08v29.5h11.15V173.65a15.37,15.37,0,0,0-15.36-15.35H566.14v45.28h11.15V167.66h15.29A6.43,6.43,0,0,1,599,174.08Z"/></g></g></svg>